<svg xmlns="http://www.w3.org/2000/svg" width="350" height="154" viewBox="0 0 350 154" role="img" aria-label="Most Used Languages">

  <style>
    .bg { fill: #ffffff; stroke: #d0d7de; }
    .title { font: 600 16px 'Segoe UI', Ubuntu, Helvetica, Arial, sans-serif; fill: #1f6feb; }
    .label { font: 400 13px 'Segoe UI', Ubuntu, Helvetica, Arial, sans-serif; fill: #424a53; }
    .value { font: 600 13px 'Segoe UI', Ubuntu, Helvetica, Arial, sans-serif; fill: #1f2328; }
    .track { fill: #eaeef2; }
    @media (prefers-color-scheme: dark) {
      .bg { fill: #0d1117; stroke: #30363d; }
      .title { fill: #58a6ff; }
      .label { fill: #9198a1; }
      .value { fill: #e6edf3; }
      .track { fill: #21262d; }
    }
  </style>
  <rect class="bg" x="0.5" y="0.5" rx="6" width="349" height="153"/>
  <text class="title" x="20" y="32">Most Used Languages</text>
  <rect class="track" x="20" y="48" rx="4" width="310" height="8"/>
  <rect x="20.00" y="48" width="173.33" height="8" fill="#999999"/>
  <rect x="193.33" y="48" width="64.39" height="8" fill="#3572A5"/>
  <rect x="257.72" y="48" width="50.11" height="8" fill="#e34c26"/>
  <rect x="307.83" y="48" width="14.23" height="8" fill="#f1e05a"/>
  <rect x="322.06" y="48" width="4.05" height="8" fill="#663399"/>
  <rect x="326.11" y="48" width="3.89" height="8" fill="#41b883"/>
  <circle cx="25" cy="78" r="5" fill="#999999"/>
  <text class="label" x="36" y="82">Lasso <tspan class="value">55.9%</tspan></text>
  <circle cx="185" cy="78" r="5" fill="#3572A5"/>
  <text class="label" x="196" y="82">Python <tspan class="value">20.8%</tspan></text>
  <circle cx="25" cy="102" r="5" fill="#e34c26"/>
  <text class="label" x="36" y="106">HTML <tspan class="value">16.2%</tspan></text>
  <circle cx="185" cy="102" r="5" fill="#f1e05a"/>
  <text class="label" x="196" y="106">JavaScript <tspan class="value">4.6%</tspan></text>
  <circle cx="25" cy="126" r="5" fill="#663399"/>
  <text class="label" x="36" y="130">CSS <tspan class="value">1.3%</tspan></text>
  <circle cx="185" cy="126" r="5" fill="#41b883"/>
  <text class="label" x="196" y="130">Vue <tspan class="value">1.3%</tspan></text>
</svg>
